<svg width="102" height="102" viewBox="0 0 102 102" fill="none" xmlns="http://www.w3.org/2000/svg">
<path d="M50.7728 0V102H51.2272V0H50.7728Z" fill="white"/>
<path d="M50.49 92.0419C50.3564 92.0419 50.2481 91.9336 50.2481 91.8V10.2C50.2481 10.0664 50.3564 9.95809 50.49 9.95809H51.51C51.6436 9.95809 51.7519 10.0664 51.7519 10.2V91.8C51.7519 91.9336 51.6436 92.0419 51.51 92.0419H50.49Z" fill="white"/>
<path d="M37.5808 1.79652L63.9804 100.321L64.4193 100.203L38.0197 1.67892L37.5808 1.79652Z" fill="white"/>
<path d="M61.1298 90.7756C61.0008 90.8101 60.8681 90.7336 60.8336 90.6045L39.714 11.785C39.6794 11.656 39.756 11.5233 39.885 11.4887L40.8703 11.2247C40.9993 11.1902 41.132 11.2667 41.1665 11.3958L62.2861 90.2153C62.3207 90.3443 62.2441 90.477 62.1151 90.5116L61.1298 90.7756Z" fill="white"/>
<path d="M25.3032 6.94658L76.3032 95.2811L76.6967 95.0539L25.6967 6.71938L25.3032 6.94658Z" fill="white"/>
<path d="M71.0792 86.7983C70.9635 86.8651 70.8156 86.8255 70.7488 86.7098L29.9488 16.0421C29.882 15.9264 29.9216 15.7785 30.0373 15.7117L30.9207 15.2017C31.0364 15.1349 31.1843 15.1745 31.2511 15.2902L72.0511 85.9579C72.1179 86.0736 72.0783 86.2215 71.9626 86.2883L71.0792 86.7983Z" fill="white"/>
<path d="M14.7773 15.0985L86.902 87.2232L87.2233 86.9019L15.0986 14.7772L14.7773 15.0985Z" fill="white"/>
<path d="M79.6607 80.3818C79.5662 80.4763 79.413 80.4763 79.3186 80.3818L21.6187 22.682C21.5242 22.5875 21.5242 22.4343 21.6187 22.3398L22.3399 21.6186C22.4344 21.5241 22.5876 21.5241 22.6821 21.6186L80.3819 79.3185C80.4764 79.4129 80.4764 79.5661 80.3819 79.6606L79.6607 80.3818Z" fill="white"/>
<path d="M6.71938 25.697L95.0539 76.697L95.2811 76.3035L6.94658 25.3035L6.71938 25.697Z" fill="white"/>
<path d="M86.2883 71.9629C86.2215 72.0786 86.0736 72.1182 85.9579 72.0514L15.2902 31.2514C15.1745 31.1846 15.1349 31.0367 15.2017 30.921L15.7117 30.0376C15.7785 29.9219 15.9264 29.8823 16.0421 29.9491L86.7098 70.7491C86.8255 70.8159 86.8651 70.9638 86.7983 71.0795L86.2883 71.9629Z" fill="white"/>
<path d="M1.67912 38.0194L100.203 64.419L100.321 63.9801L1.79672 37.5805L1.67912 38.0194Z" fill="white"/>
<path d="M90.5113 62.1149C90.4767 62.2439 90.344 62.3205 90.215 62.2859L11.3955 41.1663C11.2664 41.1318 11.1899 40.9991 11.2244 40.8701L11.4884 39.8848C11.523 39.7558 11.6557 39.6792 11.7847 39.7137L90.6042 60.8334C90.7332 60.8679 90.8098 61.0006 90.7753 61.1296L90.5113 62.1149Z" fill="white"/>
<path d="M0 51.2272H102V50.7728H0V51.2272Z" fill="white"/>
<path d="M92.0419 51.51C92.0419 51.6436 91.9336 51.7519 91.8 51.7519H10.2C10.0664 51.7519 9.95809 51.6436 9.95809 51.51V50.49C9.95809 50.3564 10.0664 50.2481 10.2 50.2481H91.8C91.9336 50.2481 92.0419 50.3564 92.0419 50.49V51.51Z" fill="white"/>
<path d="M1.79653 64.4192L100.321 38.0196L100.203 37.5807L1.67893 63.9803L1.79653 64.4192Z" fill="white"/>
<path d="M90.7756 40.8702C90.8101 40.9992 90.7336 41.1319 90.6045 41.1664L11.785 62.286C11.656 62.3206 11.5233 62.244 11.4887 62.115L11.2247 61.1297C11.1902 61.0007 11.2667 60.868 11.3958 60.8335L90.2153 39.7139C90.3443 39.6793 90.477 39.7559 90.5116 39.8849L90.7756 40.8702Z" fill="white"/>
<path d="M6.94657 76.6968L95.2811 25.6968L95.0539 25.3033L6.71938 76.3033L6.94657 76.6968Z" fill="white"/>
<path d="M86.7983 30.9208C86.8651 31.0365 86.8255 31.1844 86.7098 31.2512L16.0421 72.0512C15.9264 72.118 15.7785 72.0784 15.7117 71.9627L15.2017 71.0793C15.1349 70.9636 15.1745 70.8157 15.2902 70.7489L85.9579 29.9489C86.0736 29.8821 86.2215 29.9217 86.2883 30.0374L86.7983 30.9208Z" fill="white"/>
<path d="M15.0985 87.2227L87.2232 15.098L86.9019 14.7767L14.7772 86.9014L15.0985 87.2227Z" fill="white"/>
<path d="M80.3818 22.3393C80.4763 22.4338 80.4763 22.587 80.3818 22.6814L22.682 80.3813C22.5875 80.4758 22.4343 80.4758 22.3399 80.3813L21.6186 79.6601C21.5241 79.5656 21.5241 79.4124 21.6186 79.3179L79.3185 21.6181C79.4129 21.5236 79.5661 21.5236 79.6606 21.6181L80.3818 22.3393Z" fill="white"/>
<path d="M25.697 95.2806L76.697 6.94606L76.3035 6.71886L25.3035 95.0534L25.697 95.2806Z" fill="white"/>
<path d="M71.9629 15.7117C72.0786 15.7785 72.1182 15.9264 72.0514 16.0421L31.2514 86.7098C31.1846 86.8255 31.0367 86.8651 30.921 86.7983L30.0376 86.2883C29.9219 86.2215 29.8823 86.0736 29.9491 85.9578L70.7491 15.2902C70.8159 15.1745 70.9638 15.1349 71.0795 15.2017L71.9629 15.7117Z" fill="white"/>
<path d="M38.0194 100.321L64.419 1.79651L63.9801 1.67891L37.5805 100.203L38.0194 100.321Z" fill="white"/>
<path d="M62.1149 11.4887C62.2439 11.5233 62.3205 11.656 62.2859 11.785L41.1663 90.6045C41.1317 90.7335 40.9991 90.8101 40.87 90.7755L39.8848 90.5116C39.7557 90.477 39.6792 90.3443 39.7137 90.2153L60.8334 11.3958C60.8679 11.2667 61.0006 11.1902 61.1296 11.2247L62.1149 11.4887Z" fill="white"/>
</svg>
